<?xml version="1.0" encoding="UTF-8" standalone="no"?>
<svg xmlns:rdf="http://www.w3.org/1999/02/22-rdf-syntax-ns#" xmlns="http://www.w3.org/2000/svg" xml:space="preserve" height="63.759" viewBox="0 0 191.94925 63.759189" width="191.95" version="1.1" xmlns:cc="http://creativecommons.org/ns#" xmlns:dc="http://purl.org/dc/elements/1.1/"><g transform="matrix(1.25 0 0 -1.25 -286.42 527.34)"><g transform="matrix(.25 0 0 .25 229.54 297.38)"><path d="m91.013 295.56c-40.252 23.94-91.013 58.72-91.013 120.15v64.863c18.568 7.0217 47.255 15.812 91.008 15.812 44.258 0 74.634-9.5678 91.013-15.812v-64.863c0-61.948-52.728-97.647-91.008-120.16" fill="#fff"/><g><path d="m109.85 329.06c0.2383 2.6139 1.3898 6.9703 1.3898 8.7479 0 0.8806-0.2919 1.224-0.9483 1.224-0.9204 0-2.4947-1.4997-4.4382-3.5155-2.5835-2.6769-5.4402-5.6295-8.2129-8.5306-6.8511-7.1665-6.5264-13.132-6.6292-23.254 7.6173 4.59 14.578 9.0025 19.736 12.518-0.7639 4.2186-1.4039 7.2435-0.897 12.81zm-71.714 25.162c-0.02803 1.1376 0.0047 3.6089 0 4.0387-0.08175 6.6316 1.4739 10.135 4.0551 13.558 1.2474 1.6561 2.3219 3.1721 3.4501 4.6577 2.462 3.2469 3.6276 5.7229 4.1322 11.544 0.11679 1.3642 0.35739 3.5529 0.46951 4.5012 0.10044 0.8363 0.29899 1.8968 1.1936 1.8968 0.62602 0 0.92034-0.4976 1.3221-1.4506 0.57229-1.3548 1.6982-3.9617 2.3078-5.3632 1.2964-2.9782 4.5129-3.8565 7.8719-4.9684 2.469-0.8152 7.1618-2.4013 9.0469-3.0156 1.5604-0.5069 2.2424-0.6634 3.2562-0.6634 1.4506 0 2.1303 3.0623 2.5017 6.0102 0.31768 2.5111 0.69375 4.284 1.5627 4.284 0.96939 0 1.2754-1.1633 1.3081-2.0953 0.31301-8.3554-0.22191-9.2267 4.9614-15.414 3.7701-4.4989 5.9191-4.6998 8.9441-5.1249-1.1236 0.3363-2.5671 1.6351-2.5671 4.3704v3.0039c0 1.502 0.17987 3.0297 0.92268 4.7582 0.35038 0.8129 0.76149 2.2822 1.1469 3.1815 0.65872 1.5323 0.34571 1.9201 0.34571 2.9992 0 1.1399-0.37607 2.2705-1.2777 5.0035-0.46251 1.4039-1.0885 3.4454-1.6912 5.1249-1.878 5.2394-2.6372 6.4751-8.9067 7.3043-2.0112 0.2686-10.806 1.5136-12.644 1.7753-7.0333 0.9974-12.541 1.3314-15.407 6.0452-3.4244 5.6271-3.0787 12.49-6.3723 12.49-1.5604 0-2.3896-1.7473-2.3896-4.2957 0-2.6769 1.0114-7.01 1.0114-14.55 0-6.5171-0.60733-8.3344-4.4055-13.135-0.98574-1.245-2.3125-3.0763-3.1604-4.1415-2.8288-3.5482-4.0808-5.5477-3.9079-9.6822 0.44381-10.705 2.1397-18.568 2.9198-22.646zm75.503 45.318c0.2756-0.6891 0.5045-1.4716 0.5045-2.0556 0-1.3128-0.3246-1.7146-1.0464-2.4877-0.4345-0.3878-0.9157-0.7942-1.3548-1.203-0.7195-0.3761-1.3642-0.8619-1.7963-1.4833-0.8293-1.1913-1.4413-1.9154-1.4413-2.6092 0-0.2172 0.0724-0.376 0.229-0.5022-1.0045 0.7452-1.4062 1.8944-1.4062 2.9175 0 0.9157 0.2989 1.4016 0.2989 2.2635 0 0.7288-0.2055 1.4436-0.3293 1.857-1.4039 4.6951-3.7654 10.283-5.223 14.078-1.4833 3.8705-2.6489 5.9938-4.3261 5.9938-0.93202 0-1.7613-0.4601-2.7423-0.4601 1.3408 0.002 3.4127 1.2356 4.8283 3.0927 1.6491 2.177 1.7589 3.756 1.7589 5.821 0 0.8759-0.3621 1.6398-1.0558 2.4667 2.1233-2.1654 3.4827-4.9217 4.9216-7.9724 3.1535-6.6853 5.8865-14.006 8.1803-19.717zm22.044 13.964c0.2733-0.7358 0.8993-2.4223 1.0348-2.8311 0.5162-1.544 1.3501-3.7864 1.3501-6.4797 0-2.7376-0.1869-3.5669-0.9414-6.3489-0.9623-3.5552-1.3851-4.9077-1.544-6.8605-0.2686 0.5513-5.3281 9.2851-5.7135 9.9929-0.3878 0.7125-0.7101 1.4015-0.7101 2.2238 0 0.8899 0.3831 1.4272 1.4622 2.1069 0.6471 0.4065 1.4856 0.8877 2.0533 1.1797 2.6068 1.3337 3.2305 2.9829 3.2328 4.7488 0 0.7405-0.1074 1.4996-0.2242 2.2681" fill="#96bee6"/><g fill="#1e407c"><path d="m57.507 326.26c10.745-8.3858 22.249-15.802 33.508-22.53 0.10277 10.121-0.22191 16.087 6.6292 23.254 2.7727 2.9011 5.6294 5.8537 8.2129 8.5306 1.9435 2.0158 3.5178 3.5155 4.4382 3.5155 0.6564 0 0.9483-0.3434 0.9483-1.224 0-0.9017 0.4042-4.221 2.4621-8.1943 2.5601-4.938 6.3419-5.5734 7.5519-5.8537 29.332 22.081 53.863 50.98 53.863 92.097v59.922c-7.2343 2.4574-36.951 13.856-84.113 13.856-47.161 0-76.876-11.399-84.11-13.856v-59.922c0-18.073 4.7418-33.784 12.546-47.594 0.77784 8.325 6.4073 12.27 6.4073 20.448 0 5.7066-1.6141 9.3108-1.6141 14.088 0 8.6381 11.663 26.409 17.711 33.648 0.17753 0.2126 0.56996 0.7195 1.0558 0.7195 0.43447 0 0.76383-0.3014 1.0278-0.7078 0.61667-0.9437 0.88062-1.4412 1.5393-1.4412 0.66339 0 0.92034 0.369 0.92034 0.9577 0 1.5066-1.7402 4.0154-1.7402 13.833 0 6.8652 1.5954 8.3204 5.863 12.499 0.78018 0.7639 3.1674 3.0577 5.4449 3.0577 2.5344 0 3.7911-1.4996 5.3515-3.0857 2.6372-2.6839 6.3162-7.4374 6.9119-8.1896 0.16818-0.2102 0.31768-0.4041 0.67741-0.4041 1.2193 0 2.2401 0.3667 7.5379 0.3667 9.6285 0 24.137-1.5113 31.595-3.9523 3.8401-1.2567 4.639-2.1233 5.6575-2.1233 0.4975 0 0.5395 0.3247 0.5395 0.584 0 0.4859-1.0114 1.266-1.0114 1.9271 0 0.4391 0.3574 0.7615 0.7078 0.9507 5.5617 2.9876 10.31 5.2464 14.655 5.2464 2.5297 0 3.7794-2.1911 4.8423-4.3564 0.8315-1.6889 1.7215-3.9547 1.7215-6.2836 0-5.8887-2.2495-9.4789-4.0434-11.997 0.8596-0.8806 2.0766-2.2144 2.8171-3.0997 1.3197-1.5767 2.9058-3.6347 2.9058-5.7743 0-0.9227-0.4508-2.3733-0.7078-3.5225-0.1168-0.5163-0.5699-1.551-1.4669-1.5324-0.8082 0.0164-1.0185 0.8994-1.0488 1.6819-0.007 0.1611 0 0.5162 0 0.5933 0 1.6935-0.4695 3.9943-2.0439 5.6061-1.8103 1.85-3.4688 3.1955-5.5664 3.1955h-0.7171c-3.4408 0-5.0058-1.5043-5.9518-2.4247-1.0325-1.0067-1.836-2.3522-1.836-4.1648 0-1.0395 0.7077-2.2705 1.6491-4.1556 0.5583-1.1118 1.9855-3.7607 2.7633-5.1249 0.6798-1.1889 1.5511-1.6071 2.5274-1.6071 2.3967 0 4.4849 0.3341 4.4849 1.0535 0 0.1962-0.1051 0.3621-0.4321 0.3621-0.1402 0-0.4695-0.0397-0.7662-0.0397-3.13 0-4.8049 3.9826-6.3746 7.5986 1.196 1.1656 2.5508 2.3615 5.0081 2.3615 3.1161 0 5.1647-2.0929 5.1647-4.8189 0-1.3524-0.4182-2.483-0.6634-2.9899-0.1215-0.2569-0.1892-0.4158-0.1892-0.5629 0-0.4252 0.5396-0.5116 1.3922-0.7078 0.3013-0.0701 0.8806-0.2079 1.2333-0.3083 0.9157-0.2687 1.8897-1.0582 2.3032-2.1631 0.2733-0.7358 0.8993-2.4223 1.0348-2.8311 0.5162-1.544 1.3501-3.7864 1.3501-6.4797 0-2.7376-0.1869-3.5669-0.9414-6.3489-0.9623-3.5552-1.3851-4.9077-1.544-6.8605 0.3317-0.6143 0.3598-0.7848 0.5093-1.1422 0.5372-1.1306 1.238-3.1978 1.238-5.4356v-1.843c0-3.5646-1.4226-6.3396-2.9619-8.4185-1.1983-1.6164-2.9152-3.8963-3.8986-5.16-0.64-0.7661-1.502-1.3197-2.462-1.3197-0.4579 0-0.9974 0.1541-1.537 0.2896-0.6003 0.1495-1.8757 0.4719-2.42 0.6097-2.0953 0.5302-2.8708 1.899-3.5482 3.7444-0.1004 0.2756-0.4181 1.0581-0.5162 1.3081-0.5022 1.2847-0.7825 2.1069-1.5814 2.1069-0.5933 0-1.1633-0.3877-1.7543-1.28-2.0952-3.1511-3.2328-4.2934-6.9188-5.202-1.2871-0.3154-3.9009-0.862-5.3655-1.1866-2.2074-0.4906-6.1504-1.523-8.3695-1.523-0.47185 0-0.96706 0.028-1.4763 0.0841-3.025 0.4251-5.174 0.626-8.9441 5.1249-5.1833 6.1877-4.6484 7.059-4.9614 15.414-0.0327 0.932-0.3387 2.0953-1.3081 2.0953-0.86895 0-1.245-1.7729-1.5627-4.284-0.37141-2.9479-1.0512-6.0102-2.5017-6.0102-1.0138 0-1.6958 0.1565-3.2562 0.6634-1.885 0.6143-6.5778 2.2004-9.0469 3.0156-3.359 1.1119-6.5755 1.9902-7.8719 4.9684-0.60967 1.4015-1.7356 4.0084-2.3078 5.3632-0.40177 0.953-0.69609 1.4506-1.3221 1.4506-0.89464 0-1.0932-1.0605-1.1936-1.8968-0.11212-0.9483-0.35272-3.137-0.46951-4.5012-0.50455-5.821-1.6702-8.297-4.1322-11.544-1.1282-1.4856-2.2027-3.0016-3.4501-4.6577-2.5812-3.4221-4.1368-6.9259-4.0551-13.558 0.0047-0.4298-0.02803-2.9011 0-4.0387 0.22892-9.8691 2.733-14.707 19.367-27.96zm59.581 30.24c-0.7802-0.1915-2.3102-0.5699-9.1263-0.5699-10.325 0-12.076 2.5367-12.076 4.5502 0 3.359 14.807 5.7299 20.642 5.7299 5.5898 0 8.0588-1.7962 8.0588-3.1651 0-1.5837-2.5204-5.3421-7.4982-6.5451zm-19.993 63.793c0 2.378-2.6769 5.8631-7.344 5.8631-4.1509 0-7.3206-3.1324-8.1499-5.5804 0.99508-1.9248 1.9528-3.957 5.9331-5.1623 0.52557-0.1589 1.0535-0.1729 1.0535-0.6214 0-0.6377-0.67273-0.9577-2.0906-0.9577-4.5106 0-7.1922 1.843-8.3835 3.4011-1.1656-0.1635-2.5157-0.6167-4.2022-0.6774-1.3805-0.0514-2.0089 0.8712-2.0089 2.1023 0 0.7941 0.23593 1.6678 0.70777 2.6395 0.25929 0.5349 0.53726 1.0908 0.74048 1.4856 0.70076 1.3712 1.7706 4.4242 5.8887 6.7717 0.47886 0.2733 1.7239 1.0255 2.3616 1.4015 2.3312 1.3689 4.0925 1.6936 6.8651 1.6936h2.0322c3.3216 0 5.0198-0.9344 6.4867-2.1654 2.9759-2.5041 4.611-3.8659 4.611-5.7252 0-2.065-0.1098-3.644-1.7589-5.821-1.4179-1.8571-3.4898-3.0927-4.8306-3.0927-0.37841 0-0.4882 0.2055-0.4882 0.4181 0 0.2826 0.31301 0.4228 0.6377 0.6844 1.0955 0.89 1.5907 2.4667 1.9388 3.3426zm-41.555 13.32c1.0231 0 1.8033 0.6774 3.3496 2.3873 3.4594 3.8238 6.7997 4.3354 6.7997 5.9705 0 0.7264-0.46717 1.4389-0.95537 2.2004-3.686 5.7602-5.2604 8.8716-7.4561 13.053-0.7942 1.5136-1.8313 2.5507-2.6209 2.5507-1.2754 0-2.6208-1.4879-3.401-2.7633-1.1002-1.7986-2.1957-3.8262-2.1957-5.6692 0-2.7844 0.68441-7.8672 1.8407-11.123 1.2497-3.5155 3.0647-6.6059 4.639-6.6059zm66.862 7.5752c-0.1659 0.0935-0.7545 0.3084-0.7545 0.8924 0 0.6727 0.4882 1.3688 1.4786 2.6956 2.2798 3.0576 5.4099 6.802 6.5568 6.802 0.5606 0 0.911-0.383 1.6024-1.6958 0.4111-0.7779 0.7638-2.0766 0.7638-3.31 0-4.062-1.4015-6.9165-3.5715-10.142-1.0815 1.0394-3.095 3.0506-6.0756 4.7581zm-4.0131-61.625c0 1.3759 1.1329 3.5132 1.1329 5.4239 0 2.2705-2.7843 2.9923-4.9474 3.2913-4.5502 0.6307-6.0686 0.4251-6.0686 1.4295 0 0.6938 0.612 1.4179 1.4413 2.6092 1.224 1.7589 4.1391 2.4247 5.6902 2.6372 2.0439 0.2803 4.3073 0.5536 7.0193 0.5536 3.039 0 5.6201-0.4531 6.8067-0.661 2.7891-0.4836 3.2235-1.6515 3.2235-2.9596v-1.3081c0-1.3198-1.0815-1.9972-3.0273-2.4223-0.4858-0.1051-1.1679-0.2289-1.4949-0.2966-1.4109-0.292-3.1581-0.5723-3.7771-2.3546-1.3291-3.8238-3.6417-6.8231-5.3539-6.746-0.3153 0.014-0.6447 0.2523-0.6447 0.8035"/><path d="m447.18 444.62c-0.8479 0.299-4.1088 1.3548-7.0941 1.3548-6.4844 0-9.0772-3.5201-9.0772-6.6268 0-4.0598 3.0156-5.9378 6.4961-6.8138l5.5313-1.4506c7.7902-2.0696 16.414-5.3772 16.414-16.923 0-10.588-6.8091-17.713-21.862-17.713-5.8234 0-11.876 0.6377-18.986 3.1067v14.73h10.004v-7.1922c1.5908-0.4368 6.1317-1.5674 9.9649-1.5674 5.9097 0 8.7759 2.4667 8.7759 6.6853 0 3.4922-1.9738 6.0172-9.0843 7.928l-4.7581 1.3104c-10.895 2.9479-14.599 8.1873-14.599 16.788 0 8.8366 5.9004 15.858 20.876 15.858 6.4306 0 12.859-1.1143 17.4-2.9456v-13.296h-10.002v6.767zm72.118-29.542c-9.0772 0-11.943-1.9084-11.943-5.494 0-2.4667 1.7519-5.0151 6.1317-5.0151 4.4592 0 8.9161 3.4968 8.9161 10.509h-3.1044zm3.2655 8.8413c0 5.7509-2.796 7.9607-8.4208 7.9607-3.5926 0-6.1714-0.9297-6.9095-1.1937v-5.5734h-9.0352v10.589c1.4903 0.8455 8.1779 4.3003 15.804 4.3003 11.6 0 19.066-4.7185 19.066-16.386v-18.091h4.305v-8.1218h-13.485l-0.3247 5.6692h-0.1612c-0.8269-1.161-3.8659-6.6246-13.261-6.6246-9.3949 0-13.934 5.5734-13.934 12.104 0 7.921 6.078 13.371 21.352 13.371h5.0034v1.9972zm-52.933 24.046h11.147v-8.9184h11.147v-8.1218h-11.147v-18.552c0-5.5827 1.9528-7.3253 6.5732-7.3253 1.7285 0 4.0948 0.4625 4.9637 0.6354v-7.9093c-0.9156-0.2756-4.9637-1.3268-9.173-1.3268-8.2012 0-13.511 4.4102-13.511 11.736v22.742h-5.6528v8.1218h5.6528v8.9184zm75.12 0h11.147v-8.9184h11.147v-8.1218h-11.147v-18.552c0-5.5827 1.9528-7.3253 6.5708-7.3253 1.7309 0 4.0972 0.4625 4.9661 0.6354v-7.9093c-0.9156-0.2756-4.9661-1.3268-9.173-1.3268-8.2012 0-13.511 4.4102-13.511 11.736v22.742h-5.6528v8.1218h5.6528v8.9184zm-177.72-17.04h-5.4145v8.1218h15.293l0.306-5.4496h0.1588c0.7381 1.1516 4.3681 6.405 12.796 6.405 10.57 0 16.115-7.4468 16.115-16.603v-17.874h4.7768v-8.1218h-20.462v8.1218h4.5386v15.952c0 5.8069-3.2189 8.9697-8.5096 8.9697-4.7769 0-8.4512-2.6816-8.4512-8.9697v-15.952h4.7792v-8.1218h-20.467v8.1218h4.5409v25.4zm-54.29 0h-5.4146v8.1218h15.293l0.306-5.4496h0.1588c0.7382 1.1516 4.3681 6.405 12.796 6.405 10.568 0 16.115-7.4468 16.115-16.603v-17.874h4.7769v-8.1218h-20.462v8.1218h4.5386v15.952c0 5.8069-3.2212 8.9697-8.5119 8.9697-4.7746 0-8.4489-2.6816-8.4489-8.9697v-15.952h4.7769v-8.1218h-20.465v8.1218h4.541v25.4zm286.2-7.5636c0 5.7323-3.2655 8.9978-8.4395 8.9978-5.0969 0-8.0424-3.345-8.5213-8.9978h16.961zm-16.881-7.6453c0.3201-6.6082 5.4146-10.668 13.219-10.668 6.8698 0 11.084 1.8991 12.901 2.6326v-8.6054c-1.6982-0.6798-6.3419-2.6279-15.37-2.6279-16.085 0-22.852 10.035-22.852 21.579 0 12.978 7.8836 21.976 20.941 21.976 14.333 0 20.145-10.829 20.145-24.286h-28.984zm-291.75 7.6453c0 5.7323-3.2656 8.9978-8.4396 8.9978-5.0968 0-8.0424-3.345-8.5212-8.9978h16.961zm-16.881-7.6453c0.32-6.6082 5.4145-10.668 13.219-10.668 6.8698 0 11.084 1.8991 12.901 2.6326v-8.6054c-1.6982-0.6798-6.3419-2.6279-15.37-2.6279-16.085 0-22.852 10.035-22.852 21.579 0 12.978 7.8836 21.976 20.941 21.976 14.333 0 20.145-10.829 20.145-24.286h-28.984zm-35.893 11.308c5.8116 0 9.6074 3.3403 9.6074 8.9931 0 5.1319-3.3146 9.0025-9.7663 9.0025h-7.1127v-17.996h7.2716zm-18.897 17.996h-5.494v8.1218h25.59c13.457 0 20.483-7.0684 20.483-17.124 0-11.939-9.4159-17.115-20.483-17.115h-8.4699v-13.378h5.494v-8.1218h-22.614v8.1218h5.494v39.495"/></g></g></g></g></svg>